{
  "accessors": [
    {
      "bufferView": 2,
      "componentType": 5126,
      "count": 894,
      "max": [
        0.0016740000573918223,
        -0.5733839869499207,
        1.113787055015564
      ],
      "min": [
        -0.03648500144481659,
        -1.2887599468231201,
        -0.1099649965763092
      ],
      "type": "VEC3"
    },
    {
      "bufferView": 2,
      "byteOffset": 10728,
      "componentType": 5126,
      "count": 894,
      "max": [
        1.0,
        0.9997022151947021,
        0.9998090267181396
      ],
      "min": [
        -1.0,
        -0.9999887347221375,
        -0.9997621178627014
      ],
      "type": "VEC3"
    },
    {
      "bufferView": 3,
      "componentType": 5126,
      "count": 894,
      "max": [
        0.0,
        0.9813299775123596,
        0.9829838871955872,
        1.0
      ],
      "min": [
        -1.0,
        -0.9980642795562744,
        -0.9835637211799622,
        -1.0
      ],
      "type": "VEC4"
    },
    {
      "bufferView": 1,
      "componentType": 5126,
      "count": 894,
      "max": [
        0.8405470252037048,
        0.6344670057296753
      ],
      "min": [
        0.01233999989926815,
        0.000661000027321279
      ],
      "type": "VEC2"
    },
    {
      "bufferView": 0,
      "componentType": 5125,
      "count": 2532,
      "type": "SCALAR"
    },
    {
      "bufferView": 2,
      "byteOffset": 21456,
      "componentType": 5126,
      "count": 893,
      "max": [
        0.0016740000573918223,
        -0.5733839869499207,
        1.113787055015564
      ],
      "min": [
        -0.03648500144481659,
        -1.2887599468231201,
        -0.1099649965763092
      ],
      "type": "VEC3"
    },
    {
      "bufferView": 2,
      "byteOffset": 32172,
      "componentType": 5126,
      "count": 893,
      "max": [
        1.0,
        0.9997022151947021,
        0.9998090267181396
      ],
      "min": [
        -1.0,
        -0.9999887347221375,
        -0.9997621178627014
      ],
      "type": "VEC3"
    },
    {
      "bufferView": 3,
      "byteOffset": 14304,
      "componentType": 5126,
      "count": 893,
      "max": [
        1.0,
        1.0,
        0.9831886887550354,
        1.0
      ],
      "min": [
        0.0,
        -0.9856212139129639,
        -0.9971426725387573,
        -1.0
      ],
      "type": "VEC4"
    },
    {
      "bufferView": 1,
      "byteOffset": 7152,
      "componentType": 5126,
      "count": 893,
      "max": [
        0.6717889904975891,
        0.6344670057296753
      ],
      "min": [
        0.000981000019237399,
        0.0016980000073090196
      ],
      "type": "VEC2"
    },
    {
      "bufferView": 0,
      "byteOffset": 10128,
      "componentType": 5125,
      "count": 2529,
      "type": "SCALAR"
    },
    {
      "bufferView": 2,
      "byteOffset": 42888,
      "componentType": 5126,
      "count": 3551,
      "max": [
        0.7990360260009766,
        0.815081000328064,
        1.020367980003357
      ],
      "min": [
        -0.7990360260009766,
        -0.7829909920692444,
        -1.4287769794464111
      ],
      "type": "VEC3"
    },
    {
      "bufferView": 2,
      "byteOffset": 85500,
      "componentType": 5126,
      "count": 3551,
      "max": [
        1.0,
        1.0,
        1.0
      ],
      "min": [
        -1.0,
        -1.0,
        -1.0
      ],
      "type": "VEC3"
    },
    {
      "bufferView": 3,
      "byteOffset": 28592,
      "componentType": 5126,
      "count": 3551,
      "max": [
        1.0,
        0.9999938011169434,
        1.0,
        1.0
      ],
      "min": [
        -0.9999938011169434,
        -1.0,
        -0.9856109619140625,
        1.0
      ],
      "type": "VEC4"
    },
    {
      "bufferView": 1,
      "byteOffset": 14296,
      "componentType": 5126,
      "count": 3551,
      "max": [
        0.950888991355896,
        0.9995700120925903
      ],
      "min": [
        0.0004299999854993075,
        0.0004299999854993075
      ],
      "type": "VEC2"
    },
    {
      "bufferView": 0,
      "byteOffset": 20244,
      "componentType": 5125,
      "count": 16830,
      "type": "SCALAR"
    }
  ],
  "asset": {
    "extras": {
      "author": "Brayton (https://sketchfab.com/.jimmy)",
      "license": "SKETCHFAB Standard (https://sketchfab.com/licenses)",
      "source": "https://sketchfab.com/3d-models/bronze-trophy-7ef8e19796be4beaa6ec8de162197f0e",
      "title": "Bronze Trophy"
    },
    "generator": "Sketchfab-16.54.0",
    "version": "2.0"
  },
  "bufferViews": [
    {
      "buffer": 0,
      "byteLength": 87564,
      "name": "floatBufferViews",
      "target": 34963
    },
    {
      "buffer": 0,
      "byteLength": 42704,
      "byteOffset": 87564,
      "byteStride": 8,
      "name": "floatBufferViews",
      "target": 34962
    },
    {
      "buffer": 0,
      "byteLength": 128112,
      "byteOffset": 130268,
      "byteStride": 12,
      "name": "floatBufferViews",
      "target": 34962
    },
    {
      "buffer": 0,
      "byteLength": 85408,
      "byteOffset": 258380,
      "byteStride": 16,
      "name": "floatBufferViews",
      "target": 34962
    }
  ],
  "buffers": [
    {
      "byteLength": 343788,
      "uri": "scene.bin"
    }
  ],
  "images": [
    {
      "uri": "textures/DefaultMaterial_baseColor.jpeg"
    },
    {
      "uri": "textures/DefaultMaterial_metallicRoughness.png"
    },
    {
      "uri": "textures/DefaultMaterial_normal.png"
    }
  ],
  "materials": [
    {
      "doubleSided": true,
      "name": "DefaultMaterial",
      "normalTexture": {
        "index": 2
      },
      "occlusionTexture": {
        "index": 1
      },
      "pbrMetallicRoughness": {
        "baseColorTexture": {
          "index": 0
        },
        "metallicRoughnessTexture": {
          "index": 1
        }
      }
    }
  ],
  "meshes": [
    {
      "name": "defaultMaterial",
      "primitives": [
        {
          "attributes": {
            "NORMAL": 1,
            "POSITION": 0,
            "TANGENT": 2,
            "TEXCOORD_0": 3
          },
          "indices": 4,
          "material": 0,
          "mode": 4
        }
      ]
    },
    {
      "name": "defaultMaterial",
      "primitives": [
        {
          "attributes": {
            "NORMAL": 6,
            "POSITION": 5,
            "TANGENT": 7,
            "TEXCOORD_0": 8
          },
          "indices": 9,
          "material": 0,
          "mode": 4
        }
      ]
    },
    {
      "name": "defaultMaterial",
      "primitives": [
        {
          "attributes": {
            "NORMAL": 11,
            "POSITION": 10,
            "TANGENT": 12,
            "TEXCOORD_0": 13
          },
          "indices": 14,
          "material": 0,
          "mode": 4
        }
      ]
    }
  ],
  "nodes": [
    {
      "children": [
        1
      ],
      "matrix": [
        1.0,
        0.0,
        0.0,
        0.0,
        0.0,
        2.220446049250313e-16,
        -1.0,
        0.0,
        0.0,
        1.0,
        2.220446049250313e-16,
        0.0,
        0.0,
        0.0,
        0.0,
        1.0
      ],
      "name": "Sketchfab_model"
    },
    {
      "children": [
        2,
        4,
        6
      ],
      "matrix": [
        1.0,
        0.0,
        0.0,
        0.0,
        0.0,
        -4.371139006309477e-08,
        0.999999999999999,
        0.0,
        0.0,
        -0.999999999999999,
        -4.371139006309477e-08,
        0.0,
        0.0,
        0.0,
        0.0,
        1.0
      ],
      "name": "Collada visual scene group"
    },
    {
      "children": [
        3
      ],
      "matrix": [
        -100.0,
        0.0,
        1.5e-05,
        0.0,
        1.5e-05,
        8e-06,
        100.0,
        0.0,
        0.0,
        100.0,
        -8e-06,
        0.0,
        0.0,
        0.0,
        0.0,
        1.0
      ],
      "name": "Hangle"
    },
    {
      "mesh": 0,
      "name": "defaultMaterial"
    },
    {
      "children": [
        5
      ],
      "matrix": [
        100.0,
        0.0,
        0.0,
        0.0,
        0.0,
        -1.6e-05,
        -100.0,
        0.0,
        0.0,
        100.0,
        -1.6e-05,
        0.0,
        0.0,
        0.0,
        0.0,
        1.0
      ],
      "name": "Hangle"
    },
    {
      "mesh": 1,
      "name": "defaultMaterial"
    },
    {
      "children": [
        7
      ],
      "matrix": [
        100.0,
        0.0,
        0.0,
        0.0,
        0.0,
        -1.6e-05,
        -100.0,
        0.0,
        0.0,
        100.0,
        -1.6e-05,
        0.0,
        0.0,
        0.0,
        0.0,
        1.0
      ],
      "name": "Trophy"
    },
    {
      "mesh": 2,
      "name": "defaultMaterial"
    }
  ],
  "samplers": [
    {
      "magFilter": 9729,
      "minFilter": 9987,
      "wrapS": 10497,
      "wrapT": 10497
    }
  ],
  "scene": 0,
  "scenes": [
    {
      "name": "Sketchfab_Scene",
      "nodes": [
        0
      ]
    }
  ],
  "textures": [
    {
      "sampler": 0,
      "source": 0
    },
    {
      "sampler": 0,
      "source": 1
    },
    {
      "sampler": 0,
      "source": 2
    }
  ]
}
